<svg width="81" height="33" viewBox="0 0 81 33" fill="none" xmlns="http://www.w3.org/2000/svg">
<g clip-path="url(#clip0_318_2)">
<mask id="mask0_318_2" style="mask-type:luminance" maskUnits="userSpaceOnUse" x="0" y="0" width="81" height="33">
<path d="M80.9616 0.5H0V32.5H80.9616V0.5Z" fill="white"/>
</mask>
<g mask="url(#mask0_318_2)">
<path d="M36.9537 22.8309C36.3084 22.8309 35.8659 22.4788 35.6265 21.7745L31.6539 10.2142C31.5145 9.79627 31.5422 9.44412 31.7368 9.15773C31.9315 8.87135 32.2633 8.72901 32.7323 8.73071C33.074 8.73071 33.34 8.81242 33.5303 8.97582C33.7205 9.13923 33.8723 9.39544 33.9857 9.74446L37.0251 19.0535L40.2212 9.7641C40.4618 9.07347 40.8671 8.72786 41.4373 8.72729C41.7409 8.72729 41.9815 8.8127 42.159 8.98351C42.3365 9.15431 42.4908 9.42078 42.6152 9.78545L45.7492 19.1927L48.884 9.74616C48.9683 9.4553 49.1254 9.19232 49.3394 8.98351C49.529 8.8127 49.7887 8.72729 50.1183 8.72729C50.5237 8.72729 50.8212 8.86963 51.0109 9.15431C51.2005 9.439 51.226 9.79114 51.0872 10.2108L47.0789 21.7881C46.9523 22.1411 46.7864 22.4019 46.5812 22.5704C46.376 22.739 46.1037 22.8244 45.7641 22.8266C45.4223 22.8266 45.15 22.7412 44.947 22.5704C44.7441 22.3996 44.5782 22.1323 44.4493 21.7685L41.3527 12.7157L38.2461 21.7915C38.1189 22.1428 37.9574 22.4039 37.7617 22.5747C37.5659 22.7455 37.2966 22.8309 36.9537 22.8309Z" fill="white"/>
<path d="M54.5228 22.8292C53.7126 22.8292 53.3076 22.399 53.3076 21.5387V10.0186C53.3076 9.15774 53.7126 8.72729 54.5228 8.72729C55.333 8.72729 55.7383 9.15774 55.7389 10.0186V21.5362C55.7389 22.3982 55.3335 22.8292 54.5228 22.8292Z" fill="white"/>
<path d="M59.9603 22.6721C59.1242 22.6721 58.7061 22.2288 58.7061 21.3423V10.0579C58.7061 9.17141 59.1366 8.72786 59.9977 8.72729H66.628C67.2861 8.72729 67.6152 9.05325 67.6152 9.70517C67.6152 10.3833 67.2861 10.7223 66.628 10.7223H61.1382V14.6142H66.229C66.8866 14.6142 67.2156 14.9401 67.2162 15.5921C67.2162 16.2702 66.8871 16.6092 66.229 16.6092H61.1382V21.3423C61.1382 22.2288 60.7456 22.6721 59.9603 22.6721Z" fill="white"/>
<path d="M75.0004 22.6721C74.1892 22.6721 73.7838 22.2419 73.7844 21.3816V10.8205H70.0772C69.3804 10.8205 69.032 10.4684 69.032 9.7641C69.032 9.07347 69.3804 8.72786 70.0772 8.72729H79.917C80.6127 8.72729 80.9608 9.0729 80.9614 9.7641C80.9614 10.4678 80.6133 10.82 79.917 10.8205H76.2157V21.379C76.2157 22.2411 75.8106 22.6721 75.0004 22.6721Z" fill="white"/>
<path d="M25.7775 1.50606L36.3125 32.5L0 29.1496V0.5L25.7775 1.50606Z" fill="#4EAC5B"/>
<path d="M14.3763 22.8616C13.5415 22.8634 12.7094 22.7651 11.8968 22.5686C11.1541 22.3993 10.4445 22.1019 9.79807 21.689C9.50608 21.4931 9.32884 21.252 9.26634 20.9656C9.20125 20.6947 9.22458 20.4093 9.33271 20.1534C9.37915 20.0344 9.44851 19.9262 9.53661 19.8355C9.62471 19.7448 9.72974 19.6734 9.84536 19.6256C10.0793 19.5277 10.3484 19.5766 10.6525 19.7725C11.2028 20.1098 11.7985 20.3613 12.4202 20.5189C13.061 20.6778 13.718 20.7567 14.3771 20.7538C15.3764 20.7538 16.1044 20.581 16.5612 20.2354C17.018 19.8898 17.2459 19.4431 17.2448 18.8954C17.2448 18.4399 17.0833 18.0815 16.7603 17.8202C16.4374 17.5588 15.8843 17.3436 15.1013 17.1745L13.0117 16.7244C10.6265 16.2006 9.43391 14.9412 9.43391 12.9462C9.43391 12.0853 9.65512 11.3354 10.0976 10.6966C10.54 10.0578 11.1541 9.56251 11.94 9.21064C12.7258 8.85878 13.6314 8.68256 14.6566 8.68199C15.3882 8.67828 16.1169 8.77712 16.8225 8.97578C17.4779 9.15819 18.1001 9.44893 18.6649 9.83665C18.7804 9.91255 18.8802 10.0112 18.9585 10.127C19.0368 10.2428 19.0921 10.3734 19.1211 10.5113C19.1731 10.7629 19.1394 11.0253 19.0257 11.2543C18.9708 11.366 18.8945 11.4651 18.8014 11.5457C18.7083 11.6262 18.6004 11.6866 18.4841 11.7232C18.2374 11.8086 17.9493 11.7533 17.6197 11.5575C17.1746 11.2929 16.6949 11.0954 16.1954 10.9708C15.6846 10.8498 15.1617 10.7907 14.6376 10.7948C13.7644 10.7948 13.0805 10.9839 12.5862 11.3619C12.0918 11.74 11.8448 12.2353 11.8454 12.8479C11.8454 13.3177 11.9972 13.6926 12.3008 13.9727C12.6044 14.2528 13.1251 14.4706 13.8628 14.6261L15.9366 15.0761C17.1908 15.3494 18.1249 15.7796 18.7387 16.3666C19.3526 16.9536 19.6598 17.7359 19.6603 18.7135C19.6738 19.4894 19.4476 20.2496 19.0141 20.8845C18.5833 21.5108 17.9723 21.9964 17.1809 22.3414C16.3895 22.6865 15.4546 22.8598 14.3763 22.8616Z" fill="white"/>
</g>
</g>
<defs>
<clipPath id="clip0_318_2">
<rect width="81" height="33" fill="white"/>
</clipPath>
</defs>
</svg>
